<svg width="20" height="20" viewBox="0 0 20 20" fill="none" xmlns="http://www.w3.org/2000/svg">
<path d="M10 0C4.47788 0 0 4.59041 0 10.2531C0 14.7833 2.86531 18.6266 6.83866 19.9824C7.33841 20.0773 7.52193 19.76 7.52193 19.4891C7.52193 19.2447 7.5126 18.4369 7.50836 17.5802C4.72626 18.2004 4.13923 16.3704 4.13923 16.3704C3.68434 15.1853 3.02891 14.8703 3.02891 14.8703C2.12165 14.2339 3.0973 14.2469 3.0973 14.2469C4.1015 14.3193 4.63027 15.3035 4.63027 15.3035C5.52216 16.871 6.96964 16.4178 7.54028 16.1559C7.63001 15.4931 7.88921 15.0409 8.17516 14.7849C5.95406 14.5255 3.61909 13.6464 3.61909 9.71767C3.61909 8.59831 4.00974 7.6836 4.64948 6.96559C4.54564 6.7073 4.20338 5.6645 4.74634 4.25219C4.74634 4.25219 5.58608 3.97662 7.49707 5.3032C8.29469 5.07595 9.15019 4.96208 10 4.95823C10.8499 4.96208 11.706 5.07595 12.5052 5.3032C14.4139 3.97662 15.2525 4.25219 15.2525 4.25219C15.7968 5.6645 15.4544 6.7073 15.3505 6.96559C15.9917 7.6836 16.3797 8.59823 16.3797 9.71767C16.3797 13.6557 14.0403 14.5229 11.8135 14.7767C12.1722 15.0948 12.4918 15.7189 12.4918 16.6754C12.4918 18.0472 12.4802 19.1514 12.4802 19.4891C12.4802 19.762 12.6602 20.0817 13.1671 19.981C17.1383 18.6237 20 14.7818 20 10.2531C20 4.59041 15.5227 0 10 0Z" fill="white"/>
<path d="M3.74538 14.6059C3.72342 14.6568 3.64515 14.672 3.57401 14.6371C3.50146 14.6037 3.46068 14.5342 3.48421 14.4831C3.50578 14.4306 3.58405 14.416 3.65644 14.4512C3.72914 14.4846 3.77055 14.5547 3.74538 14.6059V14.6059ZM4.23728 15.0559C4.1896 15.1012 4.09635 15.0801 4.03305 15.0085C3.96764 14.937 3.95541 14.8415 4.0038 14.7954C4.05297 14.7501 4.1434 14.7713 4.20897 14.8428C4.27438 14.9151 4.28708 15.0101 4.2372 15.0559L4.23728 15.0559ZM4.57476 15.6316C4.51343 15.6753 4.4132 15.6344 4.35132 15.5432C4.29006 15.4521 4.29007 15.3427 4.35265 15.2989C4.41477 15.255 4.51343 15.2944 4.57617 15.3849C4.63735 15.4776 4.63735 15.587 4.57468 15.6317L4.57476 15.6316ZM5.14541 16.2985C5.09059 16.3604 4.97389 16.3438 4.8884 16.2592C4.80103 16.1766 4.77664 16.0593 4.83162 15.9973C4.88706 15.9352 5.00447 15.9526 5.09059 16.0365C5.17741 16.119 5.20392 16.2372 5.14549 16.2985H5.14541ZM5.88295 16.5236C5.85888 16.6039 5.74641 16.6404 5.63316 16.6063C5.52006 16.5712 5.44603 16.4771 5.46885 16.396C5.49238 16.3151 5.60532 16.2771 5.71943 16.3136C5.83237 16.3486 5.90656 16.4419 5.88303 16.5236H5.88295ZM6.72245 16.6191C6.72528 16.7037 6.6292 16.7738 6.5103 16.7753C6.3907 16.778 6.294 16.7096 6.29274 16.6264C6.29274 16.541 6.38662 16.4715 6.50615 16.4695C6.62505 16.4671 6.72245 16.5351 6.72245 16.6191V16.6191ZM7.54705 16.5867C7.56133 16.6692 7.47866 16.754 7.36063 16.7765C7.24455 16.7982 7.13711 16.7473 7.12228 16.6655C7.10785 16.5809 7.19209 16.4962 7.30792 16.4743C7.42619 16.4532 7.532 16.5028 7.54705 16.5867" fill="black"/>
</svg>
